<mxfile host="app.diagrams.net" agent="Mozilla/5.0 (Windows NT 10.0; Win64; x64) AppleWebKit/537.36 (KHTML, like Gecko) Chrome/131.0.0.0 Safari/537.36" version="25.0.3">
  <diagram name="Page-1" id="50GkTOCAS0378eHwYUmC">
    <mxGraphModel dx="1434" dy="746" grid="1" gridSize="10" guides="1" tooltips="1" connect="1" arrows="1" fold="1" page="1" pageScale="1" pageWidth="850" pageHeight="1100" math="0" shadow="0">
      <root>
        <mxCell id="0" />
        <mxCell id="1" parent="0" />
        <mxCell id="n1CSV2fPI6QSNnRu2TRY-9" style="edgeStyle=orthogonalEdgeStyle;rounded=0;orthogonalLoop=1;jettySize=auto;html=1;entryX=0.5;entryY=0;entryDx=0;entryDy=0;" edge="1" parent="1" source="n1CSV2fPI6QSNnRu2TRY-1" target="n1CSV2fPI6QSNnRu2TRY-3">
          <mxGeometry relative="1" as="geometry" />
        </mxCell>
        <mxCell id="n1CSV2fPI6QSNnRu2TRY-1" value="&lt;font style=&quot;font-size: 24px;&quot;&gt;start&lt;/font&gt;" style="strokeWidth=2;html=1;shape=mxgraph.flowchart.start_1;whiteSpace=wrap;" vertex="1" parent="1">
          <mxGeometry x="375" y="40" width="100" height="60" as="geometry" />
        </mxCell>
        <mxCell id="n1CSV2fPI6QSNnRu2TRY-2" value="&lt;font style=&quot;font-size: 24px;&quot;&gt;end&lt;/font&gt;" style="strokeWidth=2;html=1;shape=mxgraph.flowchart.start_1;whiteSpace=wrap;" vertex="1" parent="1">
          <mxGeometry x="375.5" y="740" width="100" height="60" as="geometry" />
        </mxCell>
        <mxCell id="n1CSV2fPI6QSNnRu2TRY-10" style="edgeStyle=orthogonalEdgeStyle;rounded=0;orthogonalLoop=1;jettySize=auto;html=1;entryX=0.5;entryY=0;entryDx=0;entryDy=0;" edge="1" parent="1" source="n1CSV2fPI6QSNnRu2TRY-3" target="n1CSV2fPI6QSNnRu2TRY-4">
          <mxGeometry relative="1" as="geometry" />
        </mxCell>
        <mxCell id="n1CSV2fPI6QSNnRu2TRY-3" value="input employeeID&lt;span style=&quot;color: rgba(0, 0, 0, 0); font-family: monospace; font-size: 0px; text-align: start; text-wrap-mode: nowrap;&quot;&gt;%3CmxGraphModel%3E%3Croot%3E%3CmxCell%20id%3D%220%22%2F%3E%3CmxCell%20id%3D%221%22%20parent%3D%220%22%2F%3E%3CmxCell%20id%3D%222%22%20value%3D%22RealData%5B6%5D%20%3D%20%7B7%2C%204%2C%201%2C%208%2C%203%2C%202%7D%22%20style%3D%22rounded%3D1%3BwhiteSpace%3Dwrap%3Bhtml%3D1%3BabsoluteArcSize%3D1%3BarcSize%3D14%3BstrokeWidth%3D2%3B%22%20vertex%3D%221%22%20parent%3D%221%22%3E%3CmxGeometry%20x%3D%22335%22%20y%3D%22135%22%20width%3D%22180%22%20height%3D%2240%22%20as%3D%22geometry%22%2F%3E%3C%2FmxCell%3E%3C%2Froot%3E%3C%2FmxGraphModel%3E&lt;/span&gt;" style="shape=parallelogram;perimeter=parallelogramPerimeter;whiteSpace=wrap;html=1;fixedSize=1;" vertex="1" parent="1">
          <mxGeometry x="288" y="160" width="275" height="50" as="geometry" />
        </mxCell>
        <mxCell id="n1CSV2fPI6QSNnRu2TRY-11" style="edgeStyle=orthogonalEdgeStyle;rounded=0;orthogonalLoop=1;jettySize=auto;html=1;entryX=0.5;entryY=0;entryDx=0;entryDy=0;" edge="1" parent="1" source="n1CSV2fPI6QSNnRu2TRY-4" target="n1CSV2fPI6QSNnRu2TRY-6">
          <mxGeometry relative="1" as="geometry" />
        </mxCell>
        <mxCell id="n1CSV2fPI6QSNnRu2TRY-4" value="input workingHrs&lt;span style=&quot;color: rgba(0, 0, 0, 0); font-family: monospace; font-size: 0px; text-align: start; text-wrap-mode: nowrap;&quot;&gt;%3CmxGraphModel%3E%3Croot%3E%3CmxCell%20id%3D%220%22%2F%3E%3CmxCell%20id%3D%221%22%20parent%3D%220%22%2F%3E%3CmxCell%20id%3D%222%22%20value%3D%22RealData%5B6%5D%20%3D%20%7B7%2C%204%2C%201%2C%208%2C%203%2C%202%7D%22%20style%3D%22rounded%3D1%3BwhiteSpace%3Dwrap%3Bhtml%3D1%3BabsoluteArcSize%3D1%3BarcSize%3D14%3BstrokeWidth%3D2%3B%22%20vertex%3D%221%22%20parent%3D%221%22%3E%3CmxGeometry%20x%3D%22335%22%20y%3D%22135%22%20width%3D%22180%22%20height%3D%2240%22%20as%3D%22geometry%22%2F%3E%3C%2FmxCell%3E%3C%2Froot%3E%3C%2FmxGraphModel%3E&lt;/span&gt;" style="shape=parallelogram;perimeter=parallelogramPerimeter;whiteSpace=wrap;html=1;fixedSize=1;" vertex="1" parent="1">
          <mxGeometry x="288" y="250" width="275" height="50" as="geometry" />
        </mxCell>
        <mxCell id="n1CSV2fPI6QSNnRu2TRY-13" style="edgeStyle=orthogonalEdgeStyle;rounded=0;orthogonalLoop=1;jettySize=auto;html=1;entryX=0.5;entryY=0;entryDx=0;entryDy=0;" edge="1" parent="1" source="n1CSV2fPI6QSNnRu2TRY-5" target="n1CSV2fPI6QSNnRu2TRY-7">
          <mxGeometry relative="1" as="geometry" />
        </mxCell>
        <mxCell id="n1CSV2fPI6QSNnRu2TRY-5" value="totalSalary = workingHrs * salaryPerHour" style="rounded=1;whiteSpace=wrap;html=1;absoluteArcSize=1;arcSize=14;strokeWidth=2;" vertex="1" parent="1">
          <mxGeometry x="303" y="450" width="245" height="40" as="geometry" />
        </mxCell>
        <mxCell id="n1CSV2fPI6QSNnRu2TRY-12" style="edgeStyle=orthogonalEdgeStyle;rounded=0;orthogonalLoop=1;jettySize=auto;html=1;entryX=0.5;entryY=0;entryDx=0;entryDy=0;" edge="1" parent="1" source="n1CSV2fPI6QSNnRu2TRY-6" target="n1CSV2fPI6QSNnRu2TRY-5">
          <mxGeometry relative="1" as="geometry" />
        </mxCell>
        <mxCell id="n1CSV2fPI6QSNnRu2TRY-6" value="input salaryPerHour&lt;span style=&quot;color: rgba(0, 0, 0, 0); font-family: monospace; font-size: 0px; text-align: start; text-wrap-mode: nowrap;&quot;&gt;%3CmxGraphModel%3E%3Croot%3E%3CmxCell%20id%3D%220%22%2F%3E%3CmxCell%20id%3D%221%22%20parent%3D%220%22%2F%3E%3CmxCell%20id%3D%222%22%20value%3D%22RealData%5B6%5D%20%3D%20%7B7%2C%204%2C%201%2C%208%2C%203%2C%202%7D%22%20style%3D%22rounded%3D1%3BwhiteSpace%3Dwrap%3Bhtml%3D1%3BabsoluteArcSize%3D1%3BarcSize%3D14%3BstrokeWidth%3D2%3B%22%20vertex%3D%221%22%20parent%3D%221%22%3E%3CmxGeometry%20x%3D%22335%22%20y%3D%22135%22%20width%3D%22180%22%20height%3D%2240%22%20as%3D%22geometry%22%2F%3E%3C%2FmxCell%3E%3C%2Froot%3E%3C%2FmxGraphModel%3E&lt;/span&gt;" style="shape=parallelogram;perimeter=parallelogramPerimeter;whiteSpace=wrap;html=1;fixedSize=1;" vertex="1" parent="1">
          <mxGeometry x="288" y="340" width="275" height="50" as="geometry" />
        </mxCell>
        <mxCell id="n1CSV2fPI6QSNnRu2TRY-14" style="edgeStyle=orthogonalEdgeStyle;rounded=0;orthogonalLoop=1;jettySize=auto;html=1;entryX=0.5;entryY=0;entryDx=0;entryDy=0;" edge="1" parent="1" source="n1CSV2fPI6QSNnRu2TRY-7" target="n1CSV2fPI6QSNnRu2TRY-8">
          <mxGeometry relative="1" as="geometry" />
        </mxCell>
        <mxCell id="n1CSV2fPI6QSNnRu2TRY-7" value="output&lt;br&gt;&quot;Employee ID = &quot;, employeeID" style="shape=parallelogram;perimeter=parallelogramPerimeter;whiteSpace=wrap;html=1;fixedSize=1;" vertex="1" parent="1">
          <mxGeometry x="288" y="540" width="275" height="50" as="geometry" />
        </mxCell>
        <mxCell id="n1CSV2fPI6QSNnRu2TRY-8" value="output&lt;br&gt;&quot;Salary = U$&quot;, totalSalary" style="shape=parallelogram;perimeter=parallelogramPerimeter;whiteSpace=wrap;html=1;fixedSize=1;" vertex="1" parent="1">
          <mxGeometry x="288" y="640" width="275" height="50" as="geometry" />
        </mxCell>
        <mxCell id="n1CSV2fPI6QSNnRu2TRY-15" style="edgeStyle=orthogonalEdgeStyle;rounded=0;orthogonalLoop=1;jettySize=auto;html=1;entryX=0.5;entryY=0;entryDx=0;entryDy=0;entryPerimeter=0;" edge="1" parent="1" source="n1CSV2fPI6QSNnRu2TRY-8" target="n1CSV2fPI6QSNnRu2TRY-2">
          <mxGeometry relative="1" as="geometry" />
        </mxCell>
      </root>
    </mxGraphModel>
  </diagram>
</mxfile>
